<?xml version="1.0" standalone="no"?>
<!DOCTYPE svg PUBLIC "-//W3C//DTD SVG 20010904//EN"
 "http://www.w3.org/TR/2001/REC-SVG-20010904/DTD/svg10.dtd">
<svg version="1.0" xmlns="http://www.w3.org/2000/svg"
 width="512.000000pt" height="512.000000pt" viewBox="0 0 512.000000 512.000000"
 preserveAspectRatio="xMidYMid meet">
<metadata>
Created by potrace 1.14, written by Peter Selinger 2001-2017
</metadata>
<g transform="translate(0.000000,512.000000) scale(0.100000,-0.100000)"
fill="#000000" stroke="none">
<path d="M1202 4429 c-36 -13 -84 -181 -86 -299 l-1 -95 27 -3 c22 -3 30 2 38
23 5 14 10 37 10 50 0 13 4 26 8 29 4 2 37 -18 72 -46 73 -56 123 -80 160 -76
20 2 26 9 28 36 3 30 0 34 -45 53 -26 11 -60 32 -75 46 l-26 25 39 38 c34 32
39 43 39 81 0 25 -7 54 -15 66 -37 53 -125 89 -173 72z m79 -99 c37 -21 15
-68 -40 -85 -22 -7 -23 -5 -17 18 10 40 25 77 31 77 4 0 15 -5 26 -10z"/>
<path d="M1665 4326 c-55 -83 -40 -208 31 -260 37 -26 107 -33 138 -12 54 35
123 209 96 241 -29 34 -90 2 -90 -48 0 -10 -10 -41 -21 -68 -17 -39 -26 -49
-45 -49 -47 0 -69 81 -42 156 9 26 9 36 -1 48 -19 23 -48 20 -66 -8z"/>
<path d="M2907 4335 c-87 -24 -91 -35 -80 -239 7 -116 11 -141 26 -150 27 -17
51 5 58 52 3 23 8 44 10 47 3 2 41 -18 85 -46 90 -57 118 -67 140 -48 33 27
-4 71 -116 140 -13 7 -12 11 6 26 70 58 54 177 -29 216 -40 19 -37 19 -100 2z
m71 -87 c21 -21 14 -58 -14 -68 -46 -18 -54 -13 -54 29 0 29 5 41 18 44 30 8
38 7 50 -5z"/>
<path d="M2163 4298 c-32 -36 -40 -58 -58 -152 -17 -92 -12 -116 24 -116 27 0
40 20 53 82 7 32 15 58 18 58 4 0 28 -34 54 -75 57 -89 94 -115 131 -91 27 17
40 57 55 158 5 36 15 79 22 93 11 24 10 29 -10 45 -47 38 -84 -5 -97 -112 -4
-32 -10 -58 -14 -58 -7 0 -38 48 -66 103 -25 48 -60 87 -78 87 -7 0 -23 -10
-34 -22z"/>
<path d="M3462 4288 c-8 -8 -9 -40 -5 -104 5 -84 4 -94 -12 -100 -45 -18 -96
64 -93 146 3 55 3 55 -27 55 -89 0 -64 -204 33 -270 71 -48 158 -23 183 52 13
41 4 200 -13 220 -13 16 -50 17 -66 1z"/>
<path d="M3737 4278 c-12 -10 -21 -48 -33 -146 l-17 -134 22 -21 c33 -33 53
-13 68 68 7 37 14 70 17 72 2 3 16 -16 31 -41 14 -25 42 -59 60 -75 62 -54 87
-27 140 148 30 101 28 123 -15 129 -32 5 -40 -6 -70 -100 l-26 -83 -43 72
c-69 115 -97 139 -134 111z"/>
<path d="M3196 3439 c-49 -12 -76 -35 -76 -66 0 -32 23 -39 64 -19 59 28 126
15 126 -24 0 -10 -12 -32 -26 -49 -50 -59 -3 -112 53 -59 79 73 67 176 -23
214 -37 16 -61 16 -118 3z"/>
<path d="M2865 3416 c-55 -17 -93 -44 -111 -77 -17 -35 -17 -34 2 -53 21 -22
31 -20 55 8 12 14 34 30 50 36 70 29 82 -32 18 -91 -35 -32 -39 -40 -29 -58
18 -34 54 -26 105 22 38 37 45 49 45 83 0 73 -18 114 -55 130 -19 8 -36 14
-37 13 -2 0 -21 -6 -43 -13z"/>
<path d="M2042 3300 c-177 -47 -322 -180 -322 -296 0 -21 4 -45 9 -52 5 -8 -2
-37 -18 -75 -21 -53 -25 -78 -26 -167 0 -97 2 -110 31 -170 17 -36 50 -87 73
-115 l41 -50 -77 -38 c-43 -22 -93 -53 -112 -71 -39 -37 -92 -140 -122 -241
l-21 -72 -67 1 c-53 1 -75 -4 -111 -24 -62 -35 -87 -76 -95 -158 -8 -82 5
-119 62 -182 61 -69 76 -72 284 -60 100 6 189 15 200 20 27 15 60 63 120 178
29 56 57 102 60 102 11 0 69 -120 69 -141 0 -10 12 -55 26 -99 14 -45 24 -83
22 -84 -2 -1 -32 -13 -68 -25 -99 -35 -269 -126 -323 -172 -45 -39 -141 -155
-150 -182 -2 -8 -19 -4 -53 13 -60 30 -150 38 -179 17 -47 -35 -5 -183 78
-273 63 -69 119 -102 193 -114 l59 -10 255 129 c256 129 448 206 548 218 53 6
120 -16 267 -89 132 -66 239 -107 335 -129 76 -18 90 -24 85 -38 -24 -62 -4
-125 55 -175 63 -52 122 -26 248 107 94 100 114 181 66 271 -23 43 -24 48 -8
41 11 -4 39 -14 63 -21 126 -40 310 11 467 130 106 79 139 150 132 282 -4 73
-10 94 -47 171 -38 77 -57 102 -157 199 -118 116 -188 168 -264 198 -24 10
-62 33 -83 53 -57 51 -111 73 -185 73 -58 0 -66 3 -115 43 -149 121 -384 220
-559 234 -43 3 -78 9 -78 12 1 15 38 49 67 60 48 19 63 42 84 126 24 99 24
147 -2 247 -34 136 -70 191 -174 271 -84 64 -159 96 -242 103 -37 4 -86 15
-109 25 -52 24 -136 24 -232 -1z m-22 -384 c0 -8 12 -24 28 -36 34 -28 94 -22
160 15 24 14 46 25 48 25 2 0 4 -18 4 -40 0 -30 7 -47 25 -65 29 -29 57 -31
105 -7 l35 17 15 -45 c19 -58 68 -93 117 -84 30 6 33 4 33 -19 0 -13 6 -42 14
-64 13 -38 13 -42 -15 -86 -44 -71 -103 -123 -186 -164 -67 -33 -81 -36 -152
-36 -82 1 -223 26 -278 48 -51 21 -131 103 -171 174 -36 63 -37 70 -37 161 1
74 5 105 21 140 20 44 22 46 60 42 23 -2 62 5 94 16 68 25 80 26 80 8z m888
-581 c112 -38 271 -122 323 -172 l27 -25 -29 -55 c-23 -44 -29 -68 -29 -117
l0 -62 -67 33 c-61 30 -80 34 -185 40 -99 5 -121 3 -142 -10 l-25 -17 -3 -205
c-2 -168 -6 -207 -18 -215 -26 -16 -143 -25 -350 -25 -255 0 -254 0 -286 105
-13 41 -26 91 -29 111 -4 21 -22 64 -42 96 -19 32 -41 72 -48 89 -18 43 -32
49 -68 29 -23 -12 -48 -46 -91 -124 -116 -209 -98 -187 -163 -194 -32 -3 -61
-3 -65 1 -4 4 -2 29 4 55 13 62 4 123 -27 181 l-24 46 19 77 c11 43 37 112 57
153 38 74 39 76 140 136 l102 62 39 -19 c61 -30 218 -61 317 -62 107 0 172 21
268 89 l62 43 110 -3 c95 -3 125 -8 223 -41z m593 -264 c59 -37 83 -86 74
-150 -4 -25 -13 -56 -20 -68 -34 -53 -164 -57 -216 -7 -41 39 -59 75 -59 119
0 46 24 104 47 111 10 3 25 9 33 14 32 19 95 11 141 -19z m199 -120 c54 -32
239 -201 269 -245 61 -89 84 -147 89 -227 5 -93 -10 -131 -78 -192 -86 -77
-247 -147 -338 -147 -70 0 -136 26 -173 68 -55 62 -147 265 -169 372 -21 101
-25 157 -12 177 6 10 17 8 47 -7 28 -14 59 -20 105 -20 115 1 188 53 209 150
6 28 11 60 11 70 0 25 2 25 40 1z m-615 -80 c22 -10 60 -30 83 -45 l43 -27 -6
-62 c-11 -103 24 -247 96 -397 33 -68 71 -139 86 -158 14 -18 23 -36 20 -38
-7 -7 -64 23 -107 56 -19 14 -89 58 -155 95 -66 38 -154 92 -197 120 -42 27
-84 55 -93 60 -15 9 -16 16 -6 50 6 22 11 116 11 209 l0 169 93 -8 c51 -3 110
-14 132 -24z m-1602 -8 c4 -2 7 -28 7 -58 0 -64 14 -105 35 -105 9 0 15 -9 15
-24 0 -48 -91 -90 -149 -70 -33 12 -91 88 -91 120 0 38 38 104 68 117 15 6 33
17 40 24 12 12 51 9 75 -4z m859 -440 c86 -3 215 0 286 6 147 13 114 23 280
-85 44 -29 133 -82 198 -119 66 -38 127 -75 137 -83 28 -24 20 -63 -28 -135
-38 -56 -49 -66 -68 -62 -181 40 -311 85 -392 135 -16 10 -82 40 -145 65 -104
43 -120 47 -175 42 -102 -8 -300 -80 -508 -185 -106 -53 -196 -96 -202 -97
-15 0 -125 148 -125 170 0 30 94 149 148 188 120 88 358 185 417 170 11 -3 91
-7 177 -10z m-883 -365 c51 -26 74 -47 122 -110 32 -43 59 -82 59 -88 0 -5
-22 -10 -48 -10 -80 0 -175 77 -216 174 -32 77 -14 84 83 34z m1949 -33 c30
-48 28 -84 -10 -141 -37 -54 -153 -157 -171 -151 -7 2 -20 18 -30 35 -18 31
-18 33 0 66 10 19 42 69 71 111 30 42 58 89 64 105 8 25 12 28 31 19 12 -6 32
-25 45 -44z"/>
<path d="M1977 2787 c-27 -19 -20 -91 9 -95 28 -4 47 21 48 66 1 30 -3 38 -19
40 -11 1 -28 -3 -38 -11z"/>
<path d="M2224 2745 c-32 -49 10 -119 51 -85 21 17 20 96 -1 104 -26 10 -33 7
-50 -19z"/>
<path d="M2028 2594 c-15 -14 -8 -53 10 -57 9 -3 38 -10 65 -17 26 -7 50 -17
53 -21 8 -14 50 -10 64 6 19 23 8 47 -32 67 -40 21 -148 36 -160 22z"/>
<path d="M3728 1723 c-9 -10 -20 -31 -23 -46 -13 -51 43 -85 96 -57 36 20 13
79 -25 64 -20 -8 -21 -24 -1 -24 8 0 15 -4 15 -9 0 -16 -28 -20 -46 -7 -24 18
-12 66 17 66 12 0 19 5 17 13 -7 19 -33 19 -50 0z"/>
<path d="M3567 1642 c-46 -51 13 -124 69 -87 31 20 34 79 5 95 -29 15 -56 12
-74 -8z m61 -39 c-2 -20 -9 -28 -23 -28 -14 0 -21 8 -23 28 -3 23 0 27 23 27
23 0 26 -4 23 -27z"/>
<path d="M3418 1603 c-13 -15 -13 -26 -4 -62 14 -56 35 -71 70 -48 20 13 26
26 26 52 0 61 -58 97 -92 58z m60 -47 c4 -31 -12 -56 -27 -40 -5 5 -12 24 -16
42 -6 31 -5 33 17 30 17 -2 24 -10 26 -32z"/>
<path d="M3865 1519 c-4 -5 1 -39 11 -75 19 -72 38 -82 73 -38 28 35 26 56 -5
93 -26 31 -66 41 -79 20z m75 -70 c0 -9 -6 -22 -13 -28 -11 -9 -16 -3 -25 28
-18 58 -15 67 13 41 14 -13 25 -31 25 -41z"/>
<path d="M3759 1424 c-19 -52 20 -97 67 -75 32 14 33 64 2 85 -33 23 -57 20
-69 -10z m59 -17 c14 -17 -2 -42 -22 -34 -20 8 -21 47 -2 47 7 0 18 -6 24 -13z"/>
<path d="M3642 1391 c-33 -21 -16 -97 24 -107 56 -14 91 33 61 80 -15 23 -67
39 -85 27z m42 -31 c17 -6 26 -17 26 -30 0 -17 -5 -21 -27 -18 -22 2 -29 9
-31 31 -4 30 -3 31 32 17z"/>
<path d="M3510 1355 c-20 -24 5 -125 32 -125 6 0 8 9 5 21 -4 15 1 22 19 30
31 11 21 33 -12 25 -20 -5 -24 -3 -24 15 0 12 8 23 20 26 11 3 20 9 20 14 0
15 -47 10 -60 -6z"/>
<path d="M2988 3099 c-50 -26 -73 -61 -58 -88 14 -26 31 -26 60 -1 42 37 112
40 118 7 2 -10 -8 -33 -22 -52 -31 -40 -33 -70 -7 -85 29 -15 46 -4 82 51 44
69 43 113 -5 156 -30 28 -43 33 -83 33 -28 -1 -64 -9 -85 -21z"/>
<path d="M3421 3052 c-19 -9 -39 -25 -45 -34 -23 -38 36 -77 64 -43 7 8 21 15
32 15 16 0 19 -6 16 -32 -2 -26 -11 -37 -40 -53 -41 -21 -50 -52 -23 -75 23
-19 64 -3 107 39 33 34 38 45 38 85 0 104 -61 144 -149 98z"/>
<path d="M3072 2749 c-28 -8 -33 -14 -30 -37 3 -24 8 -27 46 -30 44 -3 55 -16
22 -27 -47 -15 -45 -85 3 -85 24 0 64 23 85 48 21 26 14 78 -14 111 -27 33
-51 37 -112 20z"/>
</g>
</svg>
